<?xml version="1.0" standalone="no"?>
<!DOCTYPE svg PUBLIC "-//W3C//DTD SVG 20010904//EN"
 "http://www.w3.org/TR/2001/REC-SVG-20010904/DTD/svg10.dtd">
<svg version="1.0" xmlns="http://www.w3.org/2000/svg"
 width="512.000000pt" height="512.000000pt" viewBox="0 0 512.000000 512.000000"
 preserveAspectRatio="xMidYMid meet">

<g transform="translate(0.000000,512.000000) scale(0.100000,-0.100000)"
fill="#000000" stroke="none">
<path d="M395 5106 c-196 -49 -343 -202 -386 -405 -6 -29 -8 -816 -7 -2171 l3
-2125 22 -58 c58 -154 173 -268 323 -319 l65 -23 2145 0 c2089 0 2147 1 2204
19 151 50 276 174 328 326 l23 65 0 2145 c0 2089 -1 2147 -19 2204 -49 148
-168 270 -322 328 l-59 23 -2135 2 c-1671 1 -2146 -1 -2185 -11z m3655 -1200
c13 -6 35 -26 47 -45 l23 -34 0 -1003 c0 -1082 0 -1073 -54 -1217 -87 -232
-280 -361 -591 -397 -49 -5 -118 -10 -153 -10 -57 0 -65 3 -99 34 -33 30 -37
39 -41 94 -4 59 -3 63 30 96 31 31 40 34 113 40 246 19 359 76 430 216 55 108
55 104 55 1155 1 724 4 979 13 1004 27 77 136 109 227 67z m-1700 -34 c189
-45 307 -107 411 -213 110 -112 170 -252 189 -441 16 -166 -6 -305 -70 -443
-84 -181 -233 -300 -459 -365 l-79 -23 48 -24 c69 -34 129 -91 187 -175 27
-40 139 -239 248 -443 192 -357 199 -372 199 -428 1 -53 -2 -61 -30 -87 -61
-54 -167 -47 -228 15 -17 17 -103 163 -190 325 -315 584 -318 590 -371 644
-113 118 -194 136 -601 136 l-294 0 0 -527 c0 -506 -1 -529 -20 -560 -29 -49
-65 -68 -129 -68 -65 1 -109 22 -137 69 -18 30 -19 76 -22 1266 -2 1114 -1
1239 14 1277 15 42 50 76 89 86 11 3 276 4 590 3 536 -3 575 -4 655 -24z"/>
<path d="M1310 3120 l0 -521 443 3 c416 4 447 6 520 26 220 61 340 194 368
409 24 183 -22 344 -130 447 -67 63 -134 99 -239 129 -72 19 -106 21 -519 25
l-443 3 0 -521z"/>
</g>
</svg>
